<svg width="25" height="25" viewBox="0 0 25 25" fill="none" xmlns="http://www.w3.org/2000/svg">
<rect width="25" height="25" rx="12.5" fill="white"/>
<path d="M10.584 6.5C10.8483 6.50009 11.1144 6.58942 11.3213 6.7666L17.1543 11.7666L17.2285 11.8369C17.2994 11.9109 17.3595 11.9961 17.4053 12.0908C17.4666 12.2176 17.5 12.3569 17.5 12.5C17.5 12.6431 17.4666 12.7824 17.4053 12.9092C17.3595 13.0039 17.2994 13.0891 17.2285 13.1631L17.1543 13.2334L11.3213 18.2334C11.2183 18.3216 11.0999 18.3881 10.9746 18.4326C10.8491 18.4772 10.7163 18.5 10.584 18.5C10.4516 18.5 10.3189 18.4772 10.1934 18.4326C10.0679 18.3881 9.94889 18.3218 9.8457 18.2334C9.74237 18.1448 9.6548 18.0355 9.59375 17.9092C9.54787 17.8142 9.51803 17.7118 9.50586 17.6064L9.5 17.5L9.50586 17.3936C9.51798 17.2881 9.54786 17.1859 9.59375 17.0908C9.65481 16.9645 9.74232 16.8552 9.8457 16.7666L14.8232 12.5L9.8457 8.2334C9.63628 8.05388 9.5 7.79233 9.5 7.5C9.50008 7.20777 9.63634 6.94606 9.8457 6.7666C10.0527 6.58927 10.3195 6.5 10.584 6.5Z" fill="#2664EB" stroke="#2664EB"/>
</svg>
